<?xml version="1.0" encoding="utf-8"?>
<!-- Generator: Adobe Illustrator 16.0.0, SVG Export Plug-In . SVG Version: 6.00 Build 0)  -->
<!DOCTYPE svg PUBLIC "-//W3C//DTD SVG 1.1//EN" "http://www.w3.org/Graphics/SVG/1.1/DTD/svg11.dtd">
<svg version="1.1" id="Capa_1" xmlns="http://www.w3.org/2000/svg" xmlns:xlink="http://www.w3.org/1999/xlink" x="0px" y="0px"
	 width="32px" height="32px" viewBox="0 0 32 32" enable-background="new 0 0 32 32" xml:space="preserve">
<g>
	<path d="M12.531,22.643h5.089c0.752,0,1.364-0.612,1.364-1.365V9.226c0-0.752-0.612-1.365-1.364-1.365h-5.089
		c-0.752,0-1.364,0.612-1.364,1.365v12.051C11.167,22.03,11.779,22.643,12.531,22.643z M11.542,9.226c0-0.546,0.444-0.99,0.989-0.99
		h5.089c0.546,0,0.989,0.444,0.989,0.99v12.051c0,0.546-0.443,0.99-0.989,0.99h-5.089c-0.545,0-0.989-0.444-0.989-0.99V9.226z"/>
	<path d="M15.075,20.221c-0.437,0-0.792,0.355-0.792,0.792c0,0.438,0.355,0.793,0.792,0.793c0.438,0,0.793-0.355,0.793-0.793
		C15.868,20.576,15.513,20.221,15.075,20.221z M15.075,21.618c-0.333,0-0.604-0.271-0.604-0.605c0-0.333,0.271-0.604,0.604-0.604
		c0.334,0,0.605,0.271,0.605,0.604C15.681,21.347,15.409,21.618,15.075,21.618z"/>
	<path d="M11.993,19.956h6.165c0.052,0,0.094-0.042,0.094-0.094V9.042c0-0.052-0.042-0.094-0.094-0.094h-6.165
		c-0.052,0-0.094,0.042-0.094,0.094v10.82C11.899,19.914,11.941,19.956,11.993,19.956z M12.337,9.136h5.478
		c0.139,0,0.25,0.112,0.25,0.25v10.133c0,0.138-0.111,0.25-0.25,0.25h-5.478c-0.139,0-0.25-0.112-0.25-0.25V9.386
		C12.087,9.248,12.198,9.136,12.337,9.136z"/>
	<path d="M15.076,20.616c-0.219,0-0.396,0.178-0.396,0.396s0.178,0.396,0.396,0.396c0.218,0,0.396-0.178,0.396-0.396
		S15.294,20.616,15.076,20.616z M15.076,21.222c-0.115,0-0.209-0.094-0.209-0.209s0.094-0.209,0.209-0.209
		c0.114,0,0.208,0.094,0.208,0.209S15.19,21.222,15.076,21.222z"/>
</g>
</svg>
