<?xml version="1.0" encoding="utf-8"?>
<!-- Generator: Adobe Illustrator 16.0.0, SVG Export Plug-In . SVG Version: 6.00 Build 0)  -->
<!DOCTYPE svg PUBLIC "-//W3C//DTD SVG 1.1//EN" "http://www.w3.org/Graphics/SVG/1.1/DTD/svg11.dtd">
<svg version="1.1" id="图层_1" xmlns="http://www.w3.org/2000/svg" xmlns:xlink="http://www.w3.org/1999/xlink" x="0px" y="0px"
	 width="20px" height="16px" viewBox="640 602 20 16" enable-background="new 640 602 20 16" xml:space="preserve">
<title>Share-1</title>
<g>
	<path fill="#757575" d="M654.913,611.994c-0.816,0-1.55,0.336-2.08,0.875l-4.875-2.435c0.022-0.144,0.044-0.287,0.044-0.435
		c0-0.204-0.02-0.4-0.059-0.591l4.793-2.397c0.534,0.604,1.308,0.993,2.178,0.993c1.611,0,2.918-1.307,2.918-2.918
		c0-1.612-1.307-2.918-2.918-2.918c-1.612,0-2.919,1.306-2.919,2.918c0,0.028,0.009,0.057,0.009,0.085l-5.11,2.556
		c-0.499-0.397-1.122-0.645-1.808-0.645c-1.612,0-2.918,1.306-2.918,2.918c0,1.611,1.306,2.92,2.918,2.92
		c0.745,0,1.417-0.29,1.933-0.749l5.002,2.5c-0.008,0.082-0.025,0.161-0.025,0.243c0,1.612,1.308,2.918,2.919,2.918
		c1.612,0,2.918-1.306,2.918-2.918C657.832,613.303,656.524,611.994,654.913,611.994L654.913,611.994z M654.974,603.733
		c0.729,0,1.32,0.591,1.32,1.32c0,0.73-0.591,1.322-1.32,1.322c-0.732,0-1.321-0.592-1.321-1.322
		C653.652,604.325,654.241,603.733,654.974,603.733L654.974,603.733z M645.145,611.349c-0.763,0-1.381-0.62-1.381-1.38
		c0-0.763,0.619-1.382,1.381-1.382c0.764,0,1.382,0.619,1.382,1.382C646.529,610.729,645.91,611.349,645.145,611.349
		L645.145,611.349z M654.974,616.264c-0.763,0-1.382-0.619-1.382-1.383c0-0.763,0.619-1.383,1.382-1.383
		c0.764,0,1.382,0.62,1.382,1.383C656.355,615.645,655.737,616.264,654.974,616.264L654.974,616.264z"/>
</g>
</svg>
