<?xml version="1.0" encoding="utf-8"?>
<!-- Generator: Adobe Illustrator 16.0.0, SVG Export Plug-In . SVG Version: 6.00 Build 0)  -->
<!DOCTYPE svg PUBLIC "-//W3C//DTD SVG 1.1//EN" "http://www.w3.org/Graphics/SVG/1.1/DTD/svg11.dtd">
<svg version="1.1" id="图层_1" xmlns="http://www.w3.org/2000/svg" xmlns:xlink="http://www.w3.org/1999/xlink" x="0px" y="0px"
	 width="70px" height="16px" viewBox="0 0 70 16" enable-background="new 0 0 70 16" xml:space="preserve">
<g>
	<path fill="#FDFBFB" d="M69.125,12c0,1.65-1.35,3-3,3h-62c-1.65,0-3-1.35-3-3V4c0-1.65,1.35-3,3-3h62c1.65,0,3,1.35,3,3V12z"/>
	<path fill="none" stroke="#604C3F" stroke-width="0.25" stroke-linecap="round" stroke-miterlimit="10" d="M69.125,12
		c0,1.65-1.35,3-3,3h-62c-1.65,0-3-1.35-3-3V4c0-1.65,1.35-3,3-3h62c1.65,0,3,1.35,3,3V12z"/>
</g>
</svg>
