<?xml version="1.0" encoding="utf-8"?>
<!-- Generator: Adobe Illustrator 16.0.0, SVG Export Plug-In . SVG Version: 6.00 Build 0)  -->
<!DOCTYPE svg PUBLIC "-//W3C//DTD SVG 1.1//EN" "http://www.w3.org/Graphics/SVG/1.1/DTD/svg11.dtd">
<svg version="1.1" id="图层_1" xmlns="http://www.w3.org/2000/svg" xmlns:xlink="http://www.w3.org/1999/xlink" x="0px" y="0px"
	 width="20px" height="32px" viewBox="0 0 20 32" enable-background="new 0 0 20 32" xml:space="preserve">
<path fill="#FFFFFF" d="M16.668,17.451c-3.863,4.212-6.223,6.494-6.223,12.66c0,0.257,0.006,0.512,0.014,0.766
	c-0.152,0.007-0.305,0.012-0.458,0.012s-0.306-0.005-0.458-0.012c0.008-0.254,0.014-0.51,0.014-0.766
	c0-6.168-2.359-8.448-6.223-12.66C1.288,15.62,0,12.961,0,10C0,4.477,4.477,0,10,0c5.523,0,10,4.477,10,10
	C20,12.961,18.712,15.62,16.668,17.451z"/>
</svg>
