<?xml version="1.0" standalone="no"?>
<!DOCTYPE svg PUBLIC "-//W3C//DTD SVG 1.1//EN" "http://www.w3.org/Graphics/SVG/1.1/DTD/svg11.dtd" >
<svg xmlns="http://www.w3.org/2000/svg">
<metadata>
Created by FontForge 20120731 at Tue Nov 10 16:23:58 2015
 By Ads
</metadata>
<defs>
<font id="iconfont" horiz-adv-x="1024" >
  <font-face 
    font-family="iconfont"
    font-weight="500"
    font-stretch="normal"
    units-per-em="1024"
    panose-1="2 0 6 3 0 0 0 0 0 0"
    ascent="812"
    descent="-212"
    x-height="792"
    bbox="0 -212 1024 812"
    underline-thickness="50"
    underline-position="-100"
    unicode-range="U+0078-E638"
  />
<missing-glyph horiz-adv-x="374" 
d="M34 0v682h272v-682h-272zM68 34h204v614h-204v-614z" />
    <glyph glyph-name=".notdef" horiz-adv-x="374" 
d="M34 0v682h272v-682h-272zM68 34h204v614h-204v-614z" />
    <glyph glyph-name=".null" horiz-adv-x="0" 
 />
    <glyph glyph-name="nonmarkingreturn" horiz-adv-x="341" 
 />
    <glyph glyph-name="x" unicode="x" horiz-adv-x="1001" 
d="M281 543q-27 -1 -53 -1h-83q-18 0 -36.5 -6t-32.5 -18.5t-23 -32t-9 -45.5v-76h912v41q0 16 -0.5 30t-0.5 18q0 13 -5 29t-17 29.5t-31.5 22.5t-49.5 9h-133v-97h-438v97zM955 310v-52q0 -23 0.5 -52t0.5 -58t-10.5 -47.5t-26 -30t-33 -16t-31.5 -4.5q-14 -1 -29.5 -0.5
t-29.5 0.5h-32l-45 128h-439l-44 -128h-29h-34q-20 0 -45 1q-25 0 -41 9.5t-25.5 23t-13.5 29.5t-4 30v167h911zM163 247q-12 0 -21 -8.5t-9 -21.5t9 -21.5t21 -8.5q13 0 22 8.5t9 21.5t-9 21.5t-22 8.5zM316 123q-8 -26 -14 -48q-5 -19 -10.5 -37t-7.5 -25t-3 -15t1 -14.5
t9.5 -10.5t21.5 -4h37h67h81h80h64h36q23 0 34 12t2 38q-5 13 -9.5 30.5t-9.5 34.5q-5 19 -11 39h-368zM336 498v228q0 11 2.5 23t10 21.5t20.5 15.5t34 6h188q31 0 51.5 -14.5t20.5 -52.5v-227h-327z" />
    <glyph glyph-name="uniE600" unicode="&#xe600;" 
d="M613 684h-128l-64 -64l-64 -64v-192l64 64l64 64v-208v-368h128v768z" />
    <glyph glyph-name="uniE601" unicode="&#xe601;" 
d="M487 49q11 20 29 41q4 5 11.5 13t18.5 19l24 24q13 13 30 29q67 64 92 98q38 51 56 98q18 48 18 99q0 91 -62 153q-31 30 -78 45.5t-107 15.5q-107 0 -178 -56q-8 -6 -15 -13t-13.5 -15t-12.5 -17t-11 -19t-9.5 -20.5t-8 -22t-6.5 -24t-5 -26t-4 -28.5l151 -15
q5 68 33 98q4 4 8.5 7.5t9 6.5t10 5.5t11 4t11.5 3t12.5 2t13.5 0.5h10q4 0 9 -0.5t9.5 -0.5t9.5 -0.5t9.5 -1.5t8.5 -2t8 -2.5t7.5 -3.5t6.5 -4t6 -5q8 -9 13.5 -20t8.5 -25t3 -31q0 -44 -29 -90q-11 -16 -40 -47.5t-76 -78.5q-118 -115 -158 -184q-5 -8 -16.5 -27
t-17.5 -30t-14 -27t-12 -30.5t-6 -28.5h512l-2 133h-279z" />
    <glyph glyph-name="uniE602" unicode="&#xe602;" 
d="M362 -25q18 -15 37 -26t41 -18.5t46 -11t50 -3.5q110 0 184 70t74 169q0 34 -9.5 63t-29.5 53q-13 16 -29.5 28.5t-35.5 20.5t-41 13q111 59 111 158q0 70 -54 125q-22 23 -49 38t-58.5 22.5t-67.5 7.5q-32 0 -60.5 -6t-54.5 -17q-51 -24 -79.5 -64.5t-42.5 -108.5
l136 -23q3 25 11 43.5t21 31.5q27 25 65 25q19 0 34.5 -5.5t26.5 -16.5q24 -23 24 -61q0 -14 -3.5 -27t-11 -24t-17.5 -20q-31 -27 -91 -26l-17 -117q10 3 19 5t17.5 3t16.5 2t15 1q43 0 73 -32t30 -86q0 -58 -31 -92t-77 -34q-43 0 -73 28.5t-37 81.5l-143 -17
q12 -94 80 -153z" />
    <glyph glyph-name="uniE603" unicode="&#xe603;" 
d="M680 -84v154h88v129h-88v485h-115l-309 -486v-128h291v-154h133zM384 199l163 261v-261h-163z" />
    <glyph glyph-name="uniE604" unicode="&#xe604;" 
d="M335.5 -27q66.5 -57 171.5 -57q132 0 206 101q55 74 55 169q0 113 -67.5 184t-164.5 71q-51 0 -100 -24l23 130h275v137h-386l-74 -398l118 -18q50 56 113 56q50 0 81.5 -35t31.5 -106q0 -75 -31.5 -112t-77.5 -37q-40 0 -71 28q-30 30 -37 79l-145 -15q13 -96 79.5 -153
z" />
    <glyph glyph-name="uniE605" unicode="&#xe605;" 
d="M681 636q-57 48 -145 48q-124 0 -202 -91.5t-78 -297.5q0 -202 75 -290.5t191 -88.5q108 0 177 70t69 185q0 54 -16.5 98.5t-49.5 78.5q-65 69 -157 69q-82 -1 -137 -63q9 129 41 170q16 21 35.5 31t42.5 10q35 0 57 -20.5t28 -63.5l142 16q-16 91 -73 139zM450 278
q29 33 72 33q14 0 27 -4t24.5 -11.5t21.5 -18.5q29 -34 29 -108q0 -71 -27 -102t-68 -31q-42 0 -75 38q-17 19 -25 46t-8 62q0 64 29 96z" />
    <glyph glyph-name="uniE606" unicode="&#xe606;" 
d="M618 513q-106 -133 -169 -300t-67 -329h145q-1 103 33.5 234t99.5 247q66 117 129 179v108h-512v-139h341z" />
    <glyph glyph-name="uniE607" unicode="&#xe607;" 
d="M287 256q-31 -51 -31 -112q0 -111 83 -174q71 -54 177 -54q114 0 183 65t69 169q0 32 -8.5 59.5t-25.5 52.5q-11 16 -25.5 29.5t-33 24t-39.5 19.5q51 21 79 62t28 93q0 42 -15.5 77t-46 62.5t-73.5 41t-99 13.5q-112 0 -172.5 -55t-60.5 -139q0 -49 26 -90.5t84 -64.5
q-67 -29 -99 -79zM442 545q26 25 69 25q21 0 37.5 -6.5t29 -18.5t19 -28t6.5 -37q0 -10 -1.5 -19.5t-5 -18t-8 -16t-11.5 -13.5q-25 -24 -68 -24q-21 0 -37.5 6t-29.5 18q-6 6 -11 13t-8 15.5t-4.5 18t-1.5 20.5q0 13 3 25t8.5 22t13.5 18zM430 237q13 18 33.5 27t47.5 9
q48 0 79 -32q15 -16 22.5 -37t7.5 -48q0 -60 -30 -92t-76 -32q-48 0 -79.5 33.5t-31.5 92.5q0 43 27 79z" />
    <glyph glyph-name="uniE608" unicode="&#xe608;" 
d="M341.5 -37q55.5 -47 145.5 -47q125 0 203 91t78 298q0 202 -75 290.5t-191 88.5q-107 0 -176.5 -70t-69.5 -184q0 -110 66 -178q11 -12 22.5 -21.5t23.5 -17t25 -13t27 -9.5t28.5 -6t29.5 -2q83 0 138 63q-9 -129 -40.5 -170t-77.5 -41q-36 0 -58 20q-11 11 -17.5 26.5
t-9.5 36.5l-142 -15q15 -93 70.5 -140zM574 322q-29 -33 -71 -33q-22 0 -40.5 8.5t-32.5 25.5q-30 34 -30 107q0 36 7 61.5t20 41.5q27 32 68 32q21 0 40 -10t36 -29q32 -38 32 -108q0 -64 -29 -96z" />
    <glyph glyph-name="uniE609" unicode="&#xe609;" 
d="M333 607q-77 -93 -77 -306q0 -216 70.5 -300.5t185.5 -84.5t179 77q77 93 77 307t-77 306q-32 39 -77 58.5t-102 19.5q-115 0 -179 -77zM561 548q21 -17 35 -66.5t14 -182t-16 -187.5q-12 -43 -33.5 -59.5t-48.5 -16.5t-49 16q-5 4 -10 10t-9 14.5t-8 19t-8 22.5
q-14 49 -14 182q0 132 16 188q4 14 9 25.5t11 20t13 14.5q22 16 49 16q14 0 26 -4t23 -12z" />
    <glyph glyph-name="uniE60A" unicode="&#xe60a;" 
d="M773 -52q-51 0 -94 22.5t-67.5 61.5t-24.5 85q0 71 54 120t132.5 49t132.5 -49t54 -120q0 -81 -68 -131q-52 -38 -119 -38zM773 236q-26 0 -50 -9.5t-41.5 -25.5t-28 -38t-10.5 -46q0 -13 3.5 -26.5t10 -25t15.5 -22t20.5 -18.5t24 -14t27 -9t29.5 -3q54 0 92.5 35
t38.5 83t-38.5 83.5t-92.5 35.5zM553 439l-86 -78l82 -58v-220h-67v170l-127 67q-4 3 -8.5 6.5t-7.5 7t-5.5 8t-4.5 9.5t-3 10t-1 10q0 24 19 41l138 125q19 17 45 17q38 0 56 -27l71 -112h119v-61h-156zM661 530q-18 0 -33.5 8t-24.5 22t-9 31q0 25 19.5 43t47.5 18
q19 0 34.5 -8t24.5 -22t9 -31q0 -25 -20 -43t-48 -18zM437 117q0 -46 -24.5 -85t-67.5 -61.5t-94 -22.5q-79 0 -133 49t-54 120t54 120t132.5 49t132.5 -49t54 -120zM250.5 236q-53.5 0 -92 -35.5t-38.5 -83.5t38.5 -83t92 -35t92 35t38.5 83t-38.5 83.5t-92 35.5z" />
    <glyph glyph-name="uniE60B" unicode="&#xe60b;" 
d="M893 366h-247l-224 350h-89l112 -350h-247l-67 87h-67l45 -153l-45 -153h67l67 87h247l-112 -350h89l224 350h247q27 0 47 20t20 46t-20 46t-47 20z" />
    <glyph glyph-name="uniE60C" unicode="&#xe60c;" 
d="M910 -63h-50q-22 0 -35.5 13t-13.5 35v48h-598v-48q0 -9 -2 -16.5t-6.5 -13.5t-10.5 -10t-14 -6t-16 -2h-50q-23 0 -36.5 13t-13.5 35v385l105 289q3 11 8 19t11.5 14t15.5 9.5t21 3.5h569q11 0 20.5 -3.5t17 -9t14 -14.5t9.5 -19l105 -289v-385q0 -22 -13.5 -35
t-36.5 -13zM238 107q30 0 52.5 21.5t22.5 50.5q0 19 -10.5 35.5t-27.5 26.5t-37 10q-14 0 -28 -6t-24 -15.5t-16 -23t-6 -27.5q0 -19 10 -35.5t27.5 -26.5t36.5 -10zM786 564h-548l-74 -216h696zM786 251q-30 0 -52.5 -21.5t-22.5 -50.5t22.5 -50.5t52.5 -21.5q14 0 28 6
t24 15.5t16 23t6 27.5q0 19 -10 35.5t-27.5 26.5t-36.5 10z" />
    <glyph glyph-name="uniE60D" unicode="&#xe60d;" 
d="M928 400h-156v54q67 15 111.5 69.5t44.5 124.5h-156v50q0 23 -14.5 36.5t-37.5 13.5h-416q-9 0 -17 -2.5t-14.5 -6.5t-11 -10t-7 -14t-2.5 -17v-50h-156q0 -69 44 -122t112 -72v-54h-156q0 -28 7.5 -54.5t22 -48t33.5 -40t43 -31.5t50 -21v-54h-156q0 -35 12 -67t33 -57
t49.5 -43t61.5 -27v-55q0 -23 14.5 -36.5t37.5 -13.5h416q23 0 37.5 13.5t14.5 36.5v55q67 15 111.5 69.5t44.5 124.5h-156v54q68 20 112 72.5t44 122.5zM512 -48q-43 0 -73.5 29t-30.5 70t30.5 70.5t73.5 29.5t73.5 -29.5t30.5 -70.5t-30.5 -70t-73.5 -29zM512 200
q-43 0 -73.5 29.5t-30.5 70.5t30.5 70.5t73.5 29.5t73.5 -29.5t30.5 -70.5t-30.5 -70.5t-73.5 -29.5zM512 449q-43 0 -73.5 29.5t-30.5 70.5t30.5 70t73.5 29t73.5 -29t30.5 -70t-30.5 -70.5t-73.5 -29.5z" />
    <glyph glyph-name="uniE60E" unicode="&#xe60e;" 
d="M752 658v90h-480v-90h-144v-806h288v90h192v-90h288v806h-144zM464 76h-96v90h96v-90zM464 255h-96v90h96v-90zM464 434h-96v90h96v-90zM656 76h-96v90h96v-90zM656 255h-96v90h96v-90zM656 434h-96v90h96v-90z" />
    <glyph glyph-name="uniE60F" unicode="&#xe60f;" 
d="M512 748q-58 0 -102.5 -2.5t-90.5 -9.5t-78.5 -20.5t-59 -34t-40 -51t-13.5 -71.5v-448q0 -67 50 -116t118 -49l-72 -70v-24h576v24l-72 70q68 0 118 49t50 116v448q0 48 -20.5 83t-53 55t-85 32t-104 15.5t-121.5 3.5zM296 41q-29 0 -50.5 21t-21.5 49.5t21.5 49.5
t50.5 21t50.5 -21t21.5 -49.5t-21.5 -49.5t-50.5 -21zM464 324h-240v235h240v-235zM728 41q-29 0 -50.5 21t-21.5 49.5t21.5 49.5t50.5 21t50.5 -21t21.5 -49.5t-21.5 -49.5t-50.5 -21zM800 324h-240v235h240v-235z" />
    <glyph glyph-name="uniE610" unicode="&#xe610;" 
d="M128 98q0 -63 50 -109.5t118 -46.5l-72 -68v-22h576v22l-72 68q79 0 131 59q37 44 37 97v471q0 38 -13.5 67.5t-40 48.5t-59 32t-78.5 19.5t-90.5 9t-102.5 2.5t-102.5 -2.5t-90.5 -9t-78.5 -19.5t-59 -32t-40 -48.5t-13.5 -67.5v-471zM512 31q-40 0 -68 26.5t-28 63.5
t28 63t68 26t68 -26t28 -63t-28 -63.5t-68 -26.5zM800 345h-576v224h576v-224z" />
    <glyph glyph-name="uniE611" unicode="&#xe611;" 
d="M128 88q0 -65 48 -104v-85q0 -14 6 -24.5t17 -16.5t25 -6h48q22 0 35 13t13 34v47h384v-47q0 -21 13 -34t35 -13h48q22 0 35 13t13 34v85q48 39 48 104v471q0 48 -20.5 83t-53 55t-85 32t-104 15.5t-121.5 3.5q-58 0 -102.5 -2.5t-90.5 -9.5t-78.5 -20.5t-59 -34t-40 -51
t-13.5 -71.5v-471zM296 41q-29 0 -50.5 21t-21.5 49.5t21.5 49.5t50.5 21t50.5 -21t21.5 -49.5t-21.5 -49.5t-50.5 -21zM728 41q-29 0 -50.5 21t-21.5 49.5t21.5 49.5t50.5 21t50.5 -21t21.5 -49.5t-21.5 -49.5t-50.5 -21zM800 324h-576v235h576v-235z" />
    <glyph glyph-name="uniE612" unicode="&#xe612;" 
d="M973 172q51 -47 51 -96q0 -61 -68.5 -112.5t-186.5 -81.5t-257 -30t-257 30t-186.5 81.5t-68.5 112.5q0 49 51 96q56 -51 161 -85t236 -41v66q-137 13 -228.5 75t-91.5 145q0 49 38 96q40 -49 114.5 -82t167.5 -43v413q0 13 9.5 22.5t22.5 9.5h64q13 0 22.5 -9.5
t9.5 -22.5v-413q93 10 167.5 43t114.5 82q38 -47 38 -96q0 -83 -91.5 -145t-228.5 -75v-66q130 7 235.5 41t161.5 85z" />
    <glyph glyph-name="uniE613" unicode="&#xe613;" 
d="M243 360q52 -103 137 -187.5t192 -141.5l109 110q12 11 25.5 14t24.5 -4q82 -30 179 -30q11 0 20.5 -3.5t16 -10t10 -16t3.5 -20.5v-169q0 -15 -6 -26.5t-17.5 -17.5t-26.5 -6q-115 0 -225 30.5t-202.5 85t-170.5 132.5t-132.5 170.5t-85 202.5t-30.5 225q0 23 13.5 36.5
t36.5 13.5h174q22 0 36 -13.5t14 -36.5q0 -18 1 -36t3.5 -35.5t6 -35.5t8.5 -36t11 -36q2 -8 1.5 -16.5t-3.5 -17t-8 -16.5z" />
    <glyph glyph-name="uniE614" unicode="&#xe614;" 
d="M333 31q-37 0 -63.5 -26t-26.5 -63t26.5 -63.5t63.5 -26.5t63 26.5t26 63.5q0 24 -12 44.5t-32.5 32.5t-44.5 12zM64 748v-90h90l161 -340l-63 -108q-9 -26 -9 -44q0 -25 12 -45.5t33 -32.5t45 -12h537v90h-519q-8 1 -9 9v4l40 76h332q13 0 25 3.5t21.5 9t17 14
t12.5 18.5l161 291q6 6 7.5 10.5t1.5 12.5q0 20 -12.5 32t-32.5 12h-663l-40 90h-148zM781 31q-24 0 -45 -12t-33 -32.5t-12 -44.5q0 -37 26.5 -63.5t63.5 -26.5q24 0 44.5 12t32.5 32.5t12 45.5q0 50 -43 76q-22 13 -46 13z" />
    <glyph glyph-name="uniE615" unicode="&#xe615;" 
d="M826 499h-628q-57 0 -95.5 -43t-38.5 -106v-299h179v-199h538v199h179v299q0 63 -38.5 106t-95.5 43zM691 -48h-358v248h358v-248zM825.5 300q-13.5 0 -23.5 6t-15.5 17.5t-5.5 26.5t5.5 26t15.5 17.5t23.5 6.5t23.5 -6.5t15.5 -17.5t5.5 -26t-5.5 -26.5t-15.5 -17.5
t-23.5 -6zM781 748h-538v-199h538v199z" />
    <glyph glyph-name="uniE616" unicode="&#xe616;" 
d="M730 403l-181 265q-7 7 -15.5 11.5t-17.5 4.5q-22 0 -33 -16l-181 -265h-197q-18 0 -29.5 -11.5t-11.5 -29.5v-12l103 -374q2 -9 7.5 -18t13 -16.5t16.5 -13.5t19.5 -9t21.5 -3h534q19 0 35 7.5t27.5 21.5t15.5 31l103 374v12q0 18 -11.5 29t-29.5 11h-189v1zM393 403
l123 176l123 -176h-246zM516 81q-34 0 -58 23.5t-24 56.5t24 57t58 24q13 0 26 -4t23 -11.5t17.5 -17.5t11.5 -22.5t4 -25.5q0 -33 -24 -56.5t-58 -23.5z" />
    <glyph glyph-name="uniE617" unicode="&#xe617;" 
d="M896 364v-448q0 -26 -19 -45t-45 -19h-640q-26 0 -45 19t-19 45v64v384q-53 0 -90.5 37.5t-37.5 90.5t37.5 90.5t90.5 37.5l64 64h640l64 -64q53 0 90.5 -37.5t37.5 -90.5t-37.5 -90.5t-90.5 -37.5zM768 492q0 -53 -37.5 -90.5t-90.5 -37.5t-90.5 37.5t-37.5 90.5
q0 -53 -37.5 -90.5t-90.5 -37.5t-90.5 37.5t-37.5 90.5q0 -14 -3 -27.5t-8.5 -25.5t-13.5 -22.5t-18 -19.5t-21 -15v-402h640v402q-29 17 -46.5 46t-17.5 64zM192 812h640v-64h-640v64z" />
    <glyph glyph-name="uniE618" unicode="&#xe618;" 
d="M571 600q30 0 50.5 21.5t20.5 52.5q0 10 -2.5 19.5t-7 18t-11 15t-14.5 11.5t-17 7.5t-19 2.5q-19 0 -35.5 -10t-26 -27t-9.5 -37q0 -12 3.5 -23.5t10 -20.5t15.5 -16t19.5 -10.5t22.5 -3.5zM575 345h193v74h-142l-79 136q-18 33 -53 36q-3 1 -6 1q-11 0 -19 -4l-213 -70
v-214h71v152l83 29l-154 -633h71l114 333l91 -127v-206h71v263l-99 185l28 119z" />
    <glyph glyph-name="uniE619" unicode="&#xe619;" 
d="M408 -84v290h99q26 0 48.5 0.5t42 2t36.5 3.5t30 5q40 9 79 36q13 9 24.5 20.5t21 25.5t18.5 30q25 48 25 119q0 91 -44 149q-6 9 -12.5 16t-13.5 14t-14.5 12.5t-15.5 10.5t-16.5 9t-17.5 7.5t-18 5.5q-42 12 -180 12h-244v-768h152zM481 554q21 0 38 -0.5t30.5 -1
t24 -1.5t16.5 -2q38 -8 61 -34q25 -28 25 -69q0 -34 -17.5 -60t-47.5 -38t-120 -12h-83v218h73z" />
    <glyph glyph-name="uniE61A" unicode="&#xe61a;" 
d="M64 300h448v-448h50l398 896l-896 -398v-50z" />
    <glyph glyph-name="uniE61B" unicode="&#xe61b;" 
d="M512 300q92 0 158 66t66 158t-66 158t-158 66t-158 -66t-66 -158t66 -158t158 -66zM512 188q-60 0 -134 -14.5t-146 -40.5t-120 -71t-48 -98v-112h896v112q0 53 -48 98t-120 71t-146 40.5t-134 14.5z" />
    <glyph glyph-name="uniE61C" unicode="&#xe61c;" 
d="M0 172q0 80 56 136t136 56q66 0 119 -43l29 36q-27 33 -65.5 52t-82.5 19q-7 0 -23 -2v4h-1q-5 -2 -8 -2q-13 0 -22.5 9.5t-9.5 22.5t9.5 22.5t22.5 9.5q2 0 4.5 -0.5t5.5 -1.5q2 0 5.5 0.5t5.5 1t5 0.5h6q112 0 188 -85l68 85h192q0 28 23 48l-5 16h-146v64h128h64
l18 -64h78q13 0 22.5 -9.5t9.5 -22.5v-64q0 -13 -9.5 -22.5t-22.5 -9.5h-41l20 -72q29 8 53 8q80 0 136 -56t56 -136t-56 -136t-136 -56t-136 56t-56 136q0 24 6 47t17 43.5t26 37.5t34 30l-26 27l-249 -185h-64q0 -80 -56 -136t-136 -56t-136 56t-56 136zM96 172
q0 -40 28 -68t68 -28t68 28t28 68h-96v96q-40 0 -68 -28t-28 -68zM832 268q-9 0 -26 -5l26 -91h-64l-15 52q-8 -13 -12.5 -25.5t-4.5 -26.5q0 -40 28 -68t68 -28t68 28t28 68t-28 68t-68 28z" />
    <glyph glyph-name="uniE61D" unicode="&#xe61d;" 
d="M896 12v-64q0 -26 -19 -45t-45 -19h-64q-26 0 -45 19t-19 45v64h-384v-64q0 -26 -19 -45t-45 -19h-64q-26 0 -45 19t-19 45v64q-53 0 -90.5 37.5t-37.5 90.5v64q0 53 37.5 90.5t90.5 37.5v64q0 80 56 136t136 56h64v96q0 13 9.5 22.5t22.5 9.5h192q13 0 22.5 -9.5
t9.5 -22.5v-96h64q80 0 136 -56t56 -136v-64q53 0 90.5 -37.5t37.5 -90.5v-64q0 -53 -37.5 -90.5t-90.5 -37.5zM192 140q0 -26 19 -45t45 -19t45 19t19 45t-19 45t-45 19t-45 -19t-19 -45zM768 447q0 32 -22.5 54.5t-54.5 22.5h-83h-192h-83q-32 0 -54.5 -22.5t-22.5 -54.5
v-115h512v115zM768 204q-26 0 -45 -19t-19 -45t19 -45t45 -19t45 19t19 45t-19 45t-45 19z" />
    <glyph glyph-name="uniE61E" unicode="&#xe61e;" 
d="M396 684h595q14 0 23.5 -10t9.5 -25v-454q0 -14 -9.5 -24.5t-23.5 -10.5h-595q-14 0 -24 10.5t-10 24.5v454q0 15 10 25t24 10zM261 544q3 1 7 2t14 0t17.5 -5t14 -16.5t6.5 -32.5v-256q-1 -1 0 -8t-2 -18.5t-8 -22t-17 -18.5t-30 -8h-101q-4 0 -10.5 -1t-23.5 -7.5
t-29.5 -16t-23 -30t-10.5 -46.5q0 -2 -0.5 -4.5t-2.5 -9t-5.5 -12t-10.5 -9.5t-16 -4q-30 0 -30 32v219q7 35 28 65l70 138q0 1 1 3.5t3.5 10t6 14t9 14.5t12 13.5t15.5 9.5t19 4h97zM196 125q42 0 71 -30t29 -73q0 -22 -8 -41.5t-21 -33.5t-32 -22.5t-39 -8.5
q-41 0 -69.5 31t-28.5 75q1 44 29 73.5t69 29.5zM329 125h397q4 -4 9 -12t13.5 -27t8.5 -31h-395q-3 2 -8.5 7.5t-15 24t-9.5 38.5zM890.5 125q40.5 0 69.5 -30t29 -73q0 -28 -13 -52t-36 -38t-49 -14q-41 0 -69.5 30.5t-29 73.5t28.5 73t69.5 30z" />
    <glyph glyph-name="uniE61F" unicode="&#xe61f;" 
d="M448 236h-192v-64h192v-256h128v256h192v64h-192l256 448h-128l-128 -256q-36 -68 -64 -128l-13 38q-6 11 -23 39.5t-28 50.5l-128 256h-128z" />
    <glyph glyph-name="uniE620" unicode="&#xe620;" 
d="M874 300l91 -90q37 -38 37 -91t-37 -90l-181 -181q-25 -25 -58 -34t-66 0t-57 34l-91 90l-90 -91q-25 -24 -58 -33t-66 0t-57 33l-182 181q-37 38 -37 91t37 90l91 91l-91 90q-24 25 -33 58t0 66t33 57l182 182q37 37 90 37t91 -37l90 -91l90 91q25 24 58 33t66 0t57 -33
l181 -182q38 -37 38 -90t-38 -91zM768 364h-192v192h-128v-192h-192v-128h192v-192h128v192h192v128z" />
    <glyph glyph-name="uniE621" unicode="&#xe621;" 
d="M828 12h-440q-118 74 -168 204q-29 -12 -60 -12q-66 0 -113 47t-47 113t47 113t113 47q16 0 32 -3v67h832v-192h-2q2 -24 2 -32q0 -55 -14 -107.5t-40 -97t-62 -82t-80 -65.5zM194 396h-2v58q-8 3 -16 4.5t-16 1.5q-40 0 -68 -28t-28 -68t28 -68t68 -28q20 0 42 10
q-10 47 -10 86q0 8 2 32zM704 652q2 1 5 3.5t8 9.5t7 14.5t-2.5 17.5t-17.5 19q-20 14 -20 30t10 25l10 9q4 -21 14.5 -28t21 -5.5t19 -5t9.5 -25.5q1 -26 -15 -42t-33 -19zM576 652q2 1 5 3.5t8 9.5t7 14.5t-2.5 17.5t-17.5 19q-20 14 -20 30t10 25l10 9q4 -21 14.5 -28
t21 -5.5t19 -5t9.5 -25.5q1 -26 -15 -42t-33 -19zM448 652q2 1 5 3.5t8 9.5t7 14.5t-2.5 17.5t-17.5 19q-20 14 -20 30t10 25l10 9q4 -21 14.5 -28t21 -5.5t19 -5t9.5 -25.5q1 -26 -15 -42t-33 -19zM1016 -52q8 -16 8 -32q0 -53 -85 -96h-662q-85 43 -85 96q0 16 8 32h816z
" />
    <glyph glyph-name="uniE622" unicode="&#xe622;" 
d="M896 113v128h-768v-128q-53 0 -90.5 37.5t-37.5 90.5v256q0 53 37.5 90.5t90.5 37.5h768q53 0 90.5 -37.5t37.5 -90.5v-256q0 -53 -37.5 -90.5t-90.5 -37.5zM832 113h-640v64h640v-64zM320 -79h-64l-64 128h64zM384 49l64 -128h-64l-64 128h64zM512 49l64 -128h-64
l-64 128h64zM640 49l64 -128h-64l-64 128h64zM768 49l64 -128h-64l-64 128h64z" />
    <glyph glyph-name="uniE623" unicode="&#xe623;" 
d="M512 748q-121 0 -224.5 -60t-163.5 -163.5t-60 -224.5t60 -224.5t163.5 -163.5t224.5 -60t224.5 60t163.5 163.5t60 224.5t-60 224.5t-163.5 163.5t-224.5 60zM736 139l-63 -63l-161 161l-161 -161l-63 63l161 161l-161 161l63 63l161 -161l161 161l63 -63l-161 -161z
" />
    <glyph glyph-name="uniE624" unicode="&#xe624;" 
d="M512 -148l-63 68q-61 59 -95.5 93t-81.5 83t-73 81t-56 74.5t-44.5 76.5t-24.5 73.5t-10 78.5q0 113 71 190.5t175 77.5q38 0 75 -12.5t70 -35.5t57 -54q37 47 91 74.5t111 27.5q51 0 96.5 -21t78.5 -56.5t52 -85t19 -105.5q0 -39 -10 -78.5t-24.5 -73.5t-44.5 -76.5
t-56 -74.5t-73 -81t-81.5 -83t-95.5 -93z" />
    <glyph glyph-name="uniE625" unicode="&#xe625;" 
d="M693 748h-367l-262 -264v-373l262 -259h372l262 264v368zM510 36q-26 0 -45.5 19.5t-19.5 45.5t19.5 45.5t45.5 19.5q12 0 24 -5.5t20.5 -14t14 -20.5t5.5 -25q0 -38 -34 -57q-15 -8 -30 -8zM559 250h-99v299h99v-299z" />
    <glyph glyph-name="uniE626" unicode="&#xe626;" 
d="M960 236h-384v-384h-128v384h-384v128h384v384h128v-384h384v-128z" />
    <glyph glyph-name="uniE627" unicode="&#xe627;" 
d="M512 652q-151 0 -273 -88.5t-175 -231.5q53 -143 175 -231.5t273 -88.5t273 88.5t175 231.5q-53 143 -175 231.5t-273 88.5zM512 119q-86 0 -145 61.5t-59 151.5t59 151.5t145 61.5t145 -61.5t59 -151.5q0 -101 -73 -164q-56 -49 -131 -49zM512 460q-34 0 -62 -17
t-44 -46t-16 -65q0 -54 35 -91t87 -37t87 37t35 91t-35 91t-87 37z" />
    <glyph glyph-name="uniE628" unicode="&#xe628;" 
d="M512 62l276 -210l-104 343l276 202h-336l-112 351l-112 -351h-336l276 -202l-104 -343z" />
    <glyph glyph-name="uniE629" unicode="&#xe629;" 
d="M800 449h-48v86q0 89 -69.5 151t-170.5 62q-25 0 -49 -4.5t-45.5 -12t-40.5 -19.5t-35 -26t-29 -31.5t-22 -36.5t-14 -40t-5 -43v-86h-48q-40 0 -68 -25t-28 -60v-427q0 -35 28 -60t68 -25h576q40 0 68 25t28 60v427q0 35 -28 60t-68 25zM512 65q-40 0 -68 25t-28 60.5
t28 60.5t68 25q26 0 48 -11.5t35 -31t13 -42.5q0 -36 -28 -61t-68 -25zM661 449h-298v86q0 54 44 93t105 39t105 -39t44 -93v-86z" />
    <glyph glyph-name="uniE62A" unicode="&#xe62a;" 
d="M691 300l269 -224h-373v-224h-150v224h-373l269 224h-120l224 224h-74l149 224l149 -224h-74l224 -224h-120z" />
    <glyph glyph-name="uniE62B" unicode="&#xe62b;" 
d="M105 716q-4 -1 -11 -2.5t-18 -11t-11 -23.5v-691v-6q0 -4 1.5 -14.5t4.5 -20.5t10 -22t16 -20.5t24 -14.5t34 -6h771q4 2 9.5 5.5t14.5 15.5t9 25t-9 26.5t-14.5 18t-9.5 7.5l-738 2h-4q-3 -1 -7.5 0.5t-9.5 4t-8.5 9.5t-3.5 17v168l177 69l190 -161l400 328l2 163
l-397 -334l-186 136l-185 -70l-1 369q-2 4 -6.5 9.5t-17.5 14.5t-26 9z" />
    <glyph glyph-name="uniE62C" unicode="&#xe62c;" 
d="M832 -20h-640q-53 0 -90.5 37.5t-37.5 90.5v384q0 53 37.5 90.5t90.5 37.5h640q53 0 90.5 -37.5t37.5 -90.5v-384q0 -53 -37.5 -90.5t-90.5 -37.5zM192 172q0 -26 19 -45t45 -19h128q26 0 45 19t19 45v64q0 26 -19 45t-45 19h-128q-26 0 -45 -19t-19 -45v-64zM832 492
h-640v-64h640v64zM832 268q0 13 -9.5 22.5t-22.5 9.5h-64q-13 0 -22.5 -9.5t-9.5 -22.5v-128q0 -13 9.5 -22.5t22.5 -9.5h64q13 0 22.5 9.5t9.5 22.5v128z" />
    <glyph glyph-name="uniE62D" unicode="&#xe62d;" 
d="M695 -212h-366q-20 0 -36.5 10t-26.5 26.5t-10 36.5v805q0 20 10 36.5t26.5 26.5t36.5 10h74q0 20 4 35t9 22t10.5 11t8.5 5h4h144h5q2 0 8.5 -3.5t11.5 -10.5t9 -22.5t4 -36.5h74q30 0 51.5 -21.5t21.5 -51.5v-805q0 -30 -21.5 -51.5t-51.5 -21.5zM461 305l105 331
l-205 -409h176l-122 -356l253 434h-207z" />
    <glyph glyph-name="uniE62E" unicode="&#xe62e;" 
d="M474 -136q-1 -4 -3 -10t-11.5 -16.5t-21.5 -10.5h-120q-2 0 -4.5 -0.5t-8.5 -3.5t-11 -7t-9 -11.5t-4 -16.5h466q0 2 -0.5 4.5t-2.5 9t-5.5 12t-11.5 9.5t-19 4l-121 -2h-4q-2 0 -8.5 1.5t-11.5 5t-9 11.5t-4 19v202q6 0 16 1t38 7t54 15t57.5 27.5t54 42t38 60
t15.5 81.5l-80 514h-460l-82 -514q-1 -10 0 -25.5t13.5 -56t37.5 -71.5t83 -56t140 -25z" />
    <glyph glyph-name="uniE62F" unicode="&#xe62f;" 
d="M919 446h-43v-480q0 -9 -5.5 -15t-14 -6t-15 6.5t-6.5 14.5v480h-42q-21 0 -31.5 21t-11.5 42v21l1 123l42 -125h44l18 127l21 -127h52l32 127v-125q0 -25 -4 -42.5t-10 -25.5t-12 -12t-11 -4h-4zM384 -31q-87 0 -160.5 43t-116.5 116.5t-43 160.5t43 161t116.5 116.5
t160.5 42.5t160.5 -42.5t116.5 -116.5t43 -161t-43 -160.5t-116.5 -116.5t-160.5 -43z" />
    <glyph glyph-name="uniE630" unicode="&#xe630;" 
d="M543 -84v77q49 2 90 16t72 41q63 53 63 132q0 36 -15 67t-43 53q-28 23 -72 39q-23 8 -95 22v220q46 -8 73 -31q26 -24 35 -69l98 12q-13 72 -75 114q-16 10 -36 18t-44 13t-51 8v36h-56v-36q-95 -8 -143 -42q-36 -25 -54 -58t-18 -74q0 -46 25 -82t70 -56
q61 -28 120 -36v-243q-56 4 -96 45q-28 29 -39 90l-96 -14q6 -60 38 -100q8 -11 17 -19.5t18.5 -16t20 -13.5t21.5 -11q15 -6 32.5 -11t38.5 -8.5t45 -6.5v-76h56zM487 373q-22 5 -39.5 11.5t-30.5 14t-22 16.5q-27 27 -28 65q0 40 32 68.5t88 35.5v-211zM543 289
q76 -20 102 -45q8 -9 14 -19t8.5 -22t2.5 -26q-1 -49 -36 -82q-36 -33 -91 -38v232z" />
    <glyph glyph-name="uniE631" unicode="&#xe631;" 
d="M964 12h-904q-17 0 -29.5 6.5t-18 16t-8.5 19t-3 15.5v7l1 64h95v447q0 18 6 31.5t15 19.5t18 9.5t15 4.5h7l712 -1q25 0 39.5 -15t17.5 -31l2 -15v-449h94v-65q0 -3 -0.5 -7t-4 -15t-9 -19.5t-17.5 -15.5t-28 -7zM831 588h-640v-448h640v448z" />
    <glyph glyph-name="uniE632" unicode="&#xe632;" 
d="M512 748q-121 0 -224.5 -60t-163.5 -163.5t-60 -224.5t60 -224.5t163.5 -163.5t224.5 -60t224.5 60t163.5 163.5t60 224.5t-60 224.5t-163.5 163.5t-224.5 60zM422 76l-224 224l63 63l161 -162l341 341l63 -63z" />
    <glyph glyph-name="uniE633" unicode="&#xe633;" 
d="M422 98l269 202l-269 202v-404zM512 748q-121 0 -224.5 -60t-163.5 -163.5t-60 -224.5t60 -224.5t163.5 -163.5t224.5 -60t224.5 60t163.5 163.5t60 224.5t-60 224.5t-163.5 163.5t-224.5 60zM512 -58q-73 0 -139 28.5t-114 76.5t-76.5 114t-28.5 139q0 58 18 112.5
t51 99t77.5 77.5t99 51t112.5 18t112.5 -18t99 -51t77.5 -77.5t51 -99t18 -112.5q0 -97 -48 -179.5t-130.5 -130.5t-179.5 -48z" />
    <glyph glyph-name="uniE634" unicode="&#xe634;" 
d="M960 236h-896v128h896v-128z" />
    <glyph glyph-name="uniE635" unicode="&#xe635;" 
d="M64 524h224v224h-224v-224zM400 -148h224v224h-224v-224zM64 -148h224v224h-224v-224zM64 188h224v224h-224v-224zM400 188h224v224h-224v-224zM736 748v-224h224v224h-224zM400 524h224v224h-224v-224zM736 188h224v224h-224v-224zM736 -148h224v224h-224v-224z" />
    <glyph glyph-name="uniE636" unicode="&#xe636;" 
d="M464 670v-82v-106v-102v-80q0 -32 0 -31h17h44h65h74h77h69h55q0 -109 -53.5 -201.5t-146 -146.5t-201 -54t-201 54t-146 146.5t-53.5 201.5q0 65 20 126t57 110t86 86.5t109.5 58t125.5 20.5h2zM529 763q117 0 216.5 -57.5t157 -157t57.5 -217.5h-432z" />
    <glyph glyph-name="uniE637" unicode="&#xe637;" 
d="M811 748h-598q-17 0 -33 -7t-27 -18t-18 -27t-7 -33v-598q0 -35 25 -60t60 -25h171l128 -128l128 128h171q23 0 42.5 11.5t31 31t11.5 42.5v598q0 17 -7 33t-18 27t-27 18t-33 7zM512 607q31 0 58 -15t42 -42t15 -58q0 -48 -33.5 -81.5t-81.5 -33.5t-81.5 33.5
t-33.5 81.5t33.5 81.5t81.5 33.5zM768 151h-512v38q0 30 27.5 56.5t68.5 42t83.5 24.5t76.5 9t76.5 -9t83.5 -24.5t68.5 -42t27.5 -56.5v-38z" />
    <glyph glyph-name="uniE638" unicode="&#xe638;" 
d="M512 684q159 0 271.5 -112.5t112.5 -271.5t-112.5 -271.5t-271.5 -112.5t-271.5 112.5t-112.5 271.5t112.5 271.5t271.5 112.5z" />
  </font>
</defs>
</svg>
